<?xml version="1.0" encoding="UTF-8"?>
<!DOCTYPE svg PUBLIC "-//W3C//DTD SVG 1.1//EN" "http://www.w3.org/Graphics/SVG/1.1/DTD/svg11.dtd">
<!-- Creator: CorelDRAW -->
<svg xmlns="http://www.w3.org/2000/svg" xml:space="preserve" width="180px" height="134px" version="1.1" style="shape-rendering:geometricPrecision; text-rendering:geometricPrecision; image-rendering:optimizeQuality; fill-rule:evenodd; clip-rule:evenodd"
viewBox="0 0 173.63 129.05"
 xmlns:xlink="http://www.w3.org/1999/xlink"
 xmlns:xodm="http://www.corel.com/coreldraw/odm/2003">
 <defs>
  <style type="text/css">
   <![CDATA[
    .fil1 {fill:#666666}
    .fil0 {fill:#BABABA}
   ]]>
  </style>
 </defs>
 <g id="Camada_x0020_1">
  <metadata id="CorelCorpID_0Corel-Layer"/>
  <g id="_2086644141936">
   <path class="fil0" d="M36.89 54.44c-1.73,-5.77 -5.48,-10.91 -10.62,-14.91l0 14.91 -4.99 0 0 -18.2c-2.41,-1.33 -5.02,-2.45 -7.79,-3.32l0 21.52 -4.99 0 0 -22.78c-1.37,-0.27 -2.78,-0.48 -4.21,-0.62 -2.48,-0.67 -4.29,-2.85 -4.29,-5.43 0,-3.11 2.65,-5.64 5.92,-5.64 0.06,0 0.12,0 0.17,-0.01 15.87,1.88 29.26,10.32 36.22,21.97 0.21,-0.66 0.43,-1.32 0.67,-1.98l0.06 -0.14c0.1,-0.29 0.21,-0.57 0.32,-0.85l0.07 -0.19c0.12,-0.29 0.23,-0.57 0.35,-0.85l0.05 -0.14c0.29,-0.66 0.58,-1.32 0.89,-1.97l0.03 -0.06c0.14,-0.29 0.29,-0.58 0.43,-0.88l0.1 -0.18c0.13,-0.26 0.26,-0.51 0.39,-0.76l0.11 -0.2c0.14,-0.26 0.29,-0.52 0.44,-0.78l0.07 -0.13c0.35,-0.62 0.72,-1.23 1.1,-1.83l0.08 -0.13c0.16,-0.24 0.32,-0.49 0.48,-0.74l0.14 -0.2c0.15,-0.23 0.31,-0.45 0.46,-0.68l0.13 -0.18c0.18,-0.25 0.35,-0.49 0.53,-0.73l0.09 -0.12c0.41,-0.57 0.84,-1.12 1.28,-1.66l0.14 -0.17c0.17,-0.21 0.35,-0.42 0.52,-0.63l0.18 -0.21c0.17,-0.2 0.35,-0.4 0.52,-0.6l0.16 -0.18c0.21,-0.22 0.41,-0.44 0.62,-0.66l0.08 -0.1c0.25,-0.26 0.49,-0.51 0.74,-0.76l0.07 -0.08c0.21,-0.21 0.43,-0.43 0.65,-0.64l0.21 -0.21c0.18,-0.17 0.35,-0.33 0.53,-0.49l0.25 -0.24c0.18,-0.16 0.36,-0.33 0.55,-0.49l0.2 -0.19c0.23,-0.2 0.46,-0.39 0.68,-0.59l0.1 -0.08c0.27,-0.22 0.53,-0.44 0.8,-0.66l0.17 -0.13c0.21,-0.17 0.42,-0.34 0.63,-0.5l0.27 -0.2c0.18,-0.14 0.37,-0.29 0.56,-0.43l0.27 -0.19c0.2,-0.15 0.4,-0.29 0.6,-0.43l0.25 -0.17c0.26,-0.18 0.52,-0.36 0.78,-0.53l0.07 -0.05c0.28,-0.19 0.57,-0.37 0.87,-0.55l0.21 -0.14c0.22,-0.13 0.44,-0.27 0.66,-0.4l0.29 -0.17c0.2,-0.12 0.4,-0.23 0.6,-0.35l0.33 -0.18c0.2,-0.12 0.41,-0.23 0.62,-0.34l0.27 -0.15c0.3,-0.16 0.61,-0.32 0.92,-0.47l0 -0.01c0.31,-0.15 0.62,-0.3 0.93,-0.45l0.25 -0.11c0.23,-0.11 0.45,-0.21 0.67,-0.31l0.35 -0.15c0.21,-0.09 0.41,-0.18 0.62,-0.27l0.34 -0.14c0.24,-0.1 0.48,-0.2 0.73,-0.29l0.22 -0.09c0.33,-0.12 0.65,-0.25 0.98,-0.36l0.22 -0.08c0.25,-0.09 0.5,-0.18 0.75,-0.26 0.12,-0.04 0.24,-0.08 0.36,-0.12 0.22,-0.07 0.44,-0.14 0.65,-0.21l0.37 -0.11c0.21,-0.06 0.43,-0.13 0.66,-0.19l0.35 -0.1c0.26,-0.07 0.52,-0.14 0.77,-0.2l0.24 -0.07c0.34,-0.08 0.68,-0.16 1.03,-0.24l0.22 -0.05c0.27,-0.06 0.53,-0.12 0.8,-0.17 0.11,-0.02 0.22,-0.04 0.33,-0.06 -0.01,-0.18 -0.02,-0.36 -0.02,-0.54 0,-5.31 4.05,-9.61 9.05,-9.61 4.99,0 9.04,4.3 9.04,9.61 0,0.18 -0.01,0.36 -0.01,0.54l0.32 0.06c0.27,0.05 0.53,0.11 0.8,0.17l0.22 0.05c0.35,0.08 0.69,0.16 1.03,0.24l0.24 0.07c0.26,0.06 0.51,0.13 0.77,0.2l0.36 0.1c0.22,0.06 0.44,0.13 0.66,0.19l0.36 0.11c0.22,0.07 0.43,0.14 0.65,0.21l0.36 0.12c0.25,0.08 0.5,0.17 0.75,0.26l0.22 0.08c0.33,0.11 0.66,0.24 0.98,0.36l0.22 0.09c0.25,0.09 0.49,0.19 0.73,0.29l0.34 0.14c0.21,0.09 0.41,0.18 0.62,0.27l0.35 0.15c0.22,0.1 0.44,0.2 0.67,0.31l0.25 0.11c0.31,0.15 0.62,0.3 0.93,0.45l0 0.01c0.31,0.15 0.62,0.31 0.92,0.47l0.27 0.15c0.21,0.11 0.42,0.22 0.63,0.34l0.32 0.18c0.2,0.12 0.4,0.23 0.6,0.35l0.29 0.17c0.22,0.13 0.44,0.27 0.66,0.4l0.22 0.14c0.29,0.18 0.58,0.36 0.87,0.55l0.06 0.05c0.26,0.17 0.52,0.35 0.78,0.53l0.25 0.17c0.2,0.14 0.4,0.28 0.6,0.43l0.27 0.19c0.19,0.14 0.38,0.29 0.56,0.43l0.27 0.2c0.21,0.16 0.42,0.33 0.63,0.5l0.17 0.13c0.27,0.22 0.53,0.44 0.8,0.66l0.1 0.08c0.23,0.2 0.45,0.39 0.68,0.59l0.21 0.19c0.18,0.16 0.36,0.33 0.54,0.49l0.26 0.24c0.17,0.16 0.35,0.32 0.52,0.49l0.21 0.21c0.22,0.21 0.44,0.43 0.65,0.64l0.08 0.08c0.24,0.25 0.49,0.5 0.73,0.76l0.09 0.1c0.2,0.22 0.4,0.44 0.61,0.66l0.16 0.18c0.17,0.2 0.35,0.4 0.52,0.6l0.18 0.21c0.17,0.21 0.35,0.42 0.52,0.63l0.14 0.17c0.44,0.54 0.87,1.09 1.29,1.66l0.09 0.12c0.17,0.24 0.35,0.48 0.52,0.73l0.13 0.18c0.15,0.23 0.31,0.45 0.46,0.68l0.14 0.2c0.16,0.25 0.32,0.5 0.48,0.74l0.08 0.13c0.38,0.6 0.75,1.21 1.1,1.83l0.07 0.13c0.15,0.26 0.3,0.52 0.44,0.78l0.11 0.2c0.13,0.25 0.26,0.5 0.39,0.76l0.1 0.18c0.15,0.3 0.29,0.59 0.43,0.88l0.03 0.06c0.31,0.65 0.61,1.31 0.89,1.97l0.05 0.14c0.12,0.28 0.23,0.56 0.35,0.85l0.07 0.19c0.11,0.28 0.22,0.56 0.32,0.85l0.06 0.14c0.24,0.66 0.46,1.32 0.67,1.98 6.96,-11.65 20.35,-20.09 36.22,-21.97 0.05,0.01 0.11,0.01 0.18,0.01 3.26,0 5.91,2.53 5.91,5.64 0,2.58 -1.81,4.76 -4.29,5.43 -1.43,0.14 -2.83,0.35 -4.21,0.62l0 22.78 -4.99 0 0 -21.52c-2.77,0.87 -5.38,1.99 -7.79,3.32l0 18.2 -4.99 0 0 -14.91c-5.14,4 -8.89,9.14 -10.62,14.91l-3.31 0 -93.22 0 -3.32 0zm86.04 74.03c0,0.09 0.02,0.15 0.05,0.18 0.03,0.04 0.08,0.06 0.15,0.06 0.03,0 0.08,-0.01 0.14,-0.02l0.06 0.3c-0.11,0.04 -0.21,0.06 -0.31,0.06 -0.15,0 -0.28,-0.04 -0.37,-0.13 -0.09,-0.09 -0.14,-0.21 -0.14,-0.38l0 -3.26 0.42 0 0 3.19zm-5.79 -2.19c0.31,0 0.55,0.08 0.71,0.24 0.16,0.16 0.24,0.38 0.24,0.66l0 1.81 -0.34 0 -0.04 -0.29c-0.22,0.23 -0.5,0.35 -0.84,0.35 -0.15,0 -0.29,-0.03 -0.42,-0.09 -0.13,-0.06 -0.24,-0.15 -0.32,-0.26 -0.08,-0.11 -0.11,-0.24 -0.11,-0.39l0 -0.17c0,-0.23 0.09,-0.41 0.28,-0.55 0.2,-0.14 0.46,-0.21 0.79,-0.21l0.58 0 0 -0.21c0,-0.19 -0.05,-0.32 -0.14,-0.41 -0.09,-0.09 -0.23,-0.14 -0.42,-0.14 -0.15,0 -0.28,0.02 -0.4,0.05 -0.12,0.04 -0.25,0.09 -0.39,0.16l-0.14 -0.28c0.29,-0.18 0.61,-0.27 0.96,-0.27zm-0.2 2.44c0.3,0 0.55,-0.11 0.73,-0.34l0 -0.7 -0.55 0c-0.22,0 -0.39,0.04 -0.51,0.12 -0.11,0.09 -0.17,0.21 -0.17,0.37l0 0.11c0,0.14 0.04,0.24 0.13,0.32 0.09,0.08 0.22,0.12 0.37,0.12zm-6.01 -2.44c0.26,0 0.46,0.08 0.62,0.24 0.16,0.15 0.24,0.36 0.24,0.64l0 1.83 -0.42 0 0 -1.79c0,-0.2 -0.05,-0.34 -0.14,-0.44 -0.09,-0.09 -0.22,-0.14 -0.39,-0.14 -0.29,0 -0.53,0.15 -0.71,0.44l0 1.93 -0.42 0 0 -2.65 0.35 0 0.04 0.34c0.2,-0.27 0.48,-0.4 0.83,-0.4zm-6.73 0c0.26,0 0.47,0.06 0.65,0.17 0.18,0.1 0.31,0.25 0.41,0.44 0.09,0.18 0.14,0.4 0.14,0.64l0 0.26c0,0.25 -0.05,0.46 -0.14,0.65 -0.1,0.19 -0.23,0.34 -0.41,0.45 -0.18,0.11 -0.39,0.16 -0.65,0.16 -0.38,0 -0.67,-0.12 -0.88,-0.35 -0.21,-0.23 -0.31,-0.53 -0.31,-0.91l0 -0.26c0,-0.24 0.04,-0.46 0.14,-0.64 0.09,-0.19 0.22,-0.34 0.4,-0.44 0.18,-0.11 0.4,-0.17 0.65,-0.17zm0 0.34c-0.25,0 -0.44,0.08 -0.57,0.24 -0.13,0.16 -0.2,0.38 -0.2,0.66l0 0.27c0,0.29 0.07,0.52 0.2,0.68 0.13,0.16 0.32,0.24 0.57,0.24 0.25,0 0.44,-0.08 0.57,-0.24 0.14,-0.16 0.21,-0.39 0.21,-0.68l0 -0.27c0,-0.28 -0.07,-0.5 -0.21,-0.66 -0.13,-0.16 -0.32,-0.24 -0.57,-0.24zm-5.5 2.37l-0.42 0 0 -2.31 -0.41 0 0 -0.34 0.83 0 0 2.65zm-0.23 -3.14c-0.08,0 -0.14,-0.02 -0.19,-0.07 -0.05,-0.06 -0.08,-0.12 -0.08,-0.2 0,-0.07 0.03,-0.13 0.08,-0.18 0.05,-0.06 0.11,-0.08 0.19,-0.08 0.07,0 0.13,0.02 0.18,0.08 0.06,0.05 0.08,0.11 0.08,0.18 0,0.08 -0.02,0.14 -0.08,0.2 -0.05,0.05 -0.11,0.07 -0.18,0.07zm-4.5 3.14c-0.15,0.04 -0.28,0.06 -0.42,0.06 -0.23,0 -0.4,-0.05 -0.52,-0.16 -0.12,-0.1 -0.18,-0.26 -0.18,-0.48l0 -1.73 -0.42 0 0 -0.34 0.42 0 0.04 -0.63 0.38 0 0 0.63 0.62 0 0 0.34 -0.62 0 0 1.71c0,0.22 0.12,0.32 0.36,0.32 0.1,0 0.19,-0.01 0.29,-0.03l0.05 0.31zm-6.69 -2.71c0.32,0 0.56,0.08 0.72,0.24 0.16,0.16 0.24,0.38 0.24,0.66l0 1.81 -0.34 0 -0.04 -0.29c-0.22,0.23 -0.5,0.35 -0.84,0.35 -0.15,0 -0.3,-0.03 -0.43,-0.09 -0.13,-0.06 -0.23,-0.15 -0.31,-0.26 -0.08,-0.11 -0.12,-0.24 -0.12,-0.39l0 -0.17c0,-0.23 0.1,-0.41 0.29,-0.55 0.19,-0.14 0.45,-0.21 0.78,-0.21l0.59 0 0 -0.21c0,-0.19 -0.05,-0.32 -0.14,-0.41 -0.09,-0.09 -0.24,-0.14 -0.43,-0.14 -0.14,0 -0.28,0.02 -0.4,0.05 -0.12,0.04 -0.25,0.09 -0.38,0.16l-0.14 -0.28c0.29,-0.18 0.61,-0.27 0.95,-0.27zm-0.19 2.44c0.3,0 0.54,-0.11 0.73,-0.34l0 -0.7 -0.55 0c-0.22,0 -0.39,0.04 -0.51,0.12 -0.12,0.09 -0.18,0.21 -0.18,0.37l0 0.11c0,0.14 0.05,0.24 0.14,0.32 0.09,0.08 0.21,0.12 0.37,0.12zm-6.01 -2.44c0.25,0 0.46,0.08 0.62,0.24 0.16,0.15 0.24,0.36 0.24,0.64l0 1.83 -0.43 0 0 -1.79c0,-0.2 -0.04,-0.34 -0.13,-0.44 -0.09,-0.09 -0.22,-0.14 -0.39,-0.14 -0.29,0 -0.53,0.15 -0.72,0.44l0 1.93 -0.42 0 0 -2.65 0.36 0 0.03 0.34c0.2,-0.27 0.48,-0.4 0.84,-0.4zm-5.65 0.02c0.12,0 0.22,0.01 0.3,0.04l-0.07 0.4c-0.07,-0.01 -0.13,-0.02 -0.18,-0.02 -0.17,0 -0.32,0.05 -0.44,0.15 -0.13,0.09 -0.23,0.25 -0.3,0.47l0 1.65 -0.42 0 0 -2.65 0.32 0 0.07 0.46c0.07,-0.17 0.17,-0.3 0.3,-0.38 0.13,-0.08 0.27,-0.12 0.42,-0.12zm-5.4 1.25c0,0.1 0,0.19 -0.01,0.25l-1.81 0c0,0.3 0.07,0.53 0.22,0.68 0.14,0.16 0.34,0.23 0.6,0.23 0.14,0 0.27,-0.02 0.38,-0.06 0.11,-0.04 0.23,-0.09 0.35,-0.17l0.16 0.26c-0.12,0.09 -0.25,0.17 -0.41,0.22 -0.16,0.06 -0.32,0.09 -0.5,0.09 -0.25,0 -0.46,-0.05 -0.65,-0.16 -0.18,-0.11 -0.32,-0.26 -0.42,-0.45 -0.1,-0.19 -0.14,-0.41 -0.14,-0.65l0 -0.26c0,-0.23 0.04,-0.44 0.13,-0.63 0.1,-0.19 0.23,-0.34 0.4,-0.45 0.18,-0.11 0.38,-0.17 0.61,-0.17 0.34,0 0.61,0.12 0.8,0.34 0.19,0.22 0.29,0.53 0.29,0.93zm-0.38 -0.08c0,-0.27 -0.06,-0.47 -0.18,-0.62 -0.13,-0.15 -0.3,-0.23 -0.53,-0.23 -0.23,0 -0.4,0.08 -0.53,0.23 -0.12,0.15 -0.19,0.37 -0.2,0.65l1.44 0 0 -0.03zm-5.82 1.52c-0.14,0.04 -0.28,0.06 -0.41,0.06 -0.23,0 -0.41,-0.05 -0.53,-0.16 -0.12,-0.1 -0.18,-0.26 -0.18,-0.48l0 -1.73 -0.42 0 0 -0.34 0.43 0 0.03 -0.63 0.38 0 0 0.63 0.63 0 0 0.34 -0.63 0 0 1.71c0,0.22 0.12,0.32 0.37,0.32 0.09,0 0.19,-0.01 0.28,-0.03l0.05 0.31zm-6.58 -2.71c0.25,0 0.46,0.08 0.61,0.24 0.16,0.15 0.24,0.36 0.24,0.64l0 1.83 -0.42 0 0 -1.79c0,-0.2 -0.05,-0.34 -0.14,-0.44 -0.09,-0.09 -0.22,-0.14 -0.39,-0.14 -0.29,0 -0.52,0.15 -0.71,0.44l0 1.93 -0.42 0 0 -2.65 0.35 0 0.04 0.34c0.2,-0.27 0.48,-0.4 0.84,-0.4zm-6.09 -0.45l0 2.81 0.43 0 0 0.35 -1.29 0 0 -0.35 0.43 0 0 -2.81 -0.43 0 0 -0.35 1.29 0 0 0.35 -0.43 0z"/>
   <path class="fil1" d="M36.89 57.52c-1.73,5.77 -5.48,10.91 -10.62,14.91l0 -14.91 -4.99 0 0 18.2c-2.41,1.33 -5.02,2.45 -7.79,3.32l0 -21.52 -4.99 0 0 22.78c-1.37,0.27 -2.78,0.47 -4.21,0.62 -2.48,0.67 -4.29,2.85 -4.29,5.42 0,3.12 2.65,5.65 5.92,5.65 0.06,0 0.12,0 0.17,0.01 15.87,-1.89 29.26,-10.32 36.22,-21.97 0.21,0.66 0.43,1.32 0.67,1.98l0.06 0.14c0.1,0.29 0.21,0.57 0.32,0.85l0.07 0.19c0.12,0.29 0.23,0.57 0.35,0.85l0.05 0.13c0.29,0.67 0.58,1.33 0.89,1.98l0.03 0.06c0.14,0.29 0.29,0.58 0.43,0.87l0.1 0.19c0.13,0.26 0.26,0.51 0.39,0.76l0.11 0.2c0.14,0.26 0.29,0.52 0.44,0.78l0.07 0.13c0.35,0.62 0.72,1.23 1.1,1.82l0.08 0.13c0.16,0.25 0.32,0.5 0.48,0.75l0.14 0.2c0.15,0.23 0.31,0.45 0.46,0.68l0.13 0.18c0.18,0.25 0.35,0.49 0.53,0.73l0.09 0.12c0.41,0.56 0.84,1.12 1.28,1.66l0.14 0.17c0.17,0.21 0.35,0.42 0.52,0.63l0.18 0.2c0.17,0.21 0.35,0.41 0.52,0.61l0.16 0.18c0.21,0.22 0.41,0.44 0.62,0.66l0.08 0.1c0.25,0.26 0.49,0.51 0.74,0.76l0.07 0.08c0.21,0.21 0.43,0.43 0.65,0.64l0.21 0.21c0.18,0.16 0.35,0.33 0.53,0.49l0.25 0.24c0.18,0.16 0.36,0.33 0.55,0.49l0.2 0.19c0.23,0.2 0.46,0.39 0.68,0.59l0.1 0.08c0.27,0.22 0.53,0.44 0.8,0.66l0.17 0.13c0.21,0.17 0.42,0.33 0.63,0.5l0.27 0.2c0.18,0.14 0.37,0.28 0.56,0.42l0.27 0.2c0.2,0.14 0.4,0.29 0.6,0.43l0.25 0.17c0.26,0.18 0.52,0.35 0.78,0.53l0.07 0.04c0.28,0.19 0.57,0.38 0.87,0.56l0.21 0.14c0.22,0.13 0.44,0.27 0.66,0.4l0.29 0.17c0.2,0.12 0.4,0.23 0.6,0.35l0.33 0.18c0.2,0.12 0.41,0.23 0.62,0.34l0.27 0.15c0.3,0.16 0.61,0.32 0.92,0.47l0 0c0.31,0.16 0.62,0.31 0.93,0.45l0.25 0.12c0.23,0.11 0.45,0.21 0.67,0.31l0.35 0.15c0.21,0.09 0.41,0.18 0.62,0.27l0.34 0.14c0.24,0.1 0.48,0.19 0.73,0.29l0.22 0.09c0.33,0.12 0.65,0.24 0.98,0.36l0.22 0.08c0.25,0.09 0.5,0.17 0.75,0.26 0.12,0.04 0.24,0.08 0.36,0.12 0.22,0.07 0.44,0.14 0.65,0.2l0.37 0.11c0.21,0.07 0.43,0.13 0.66,0.2l0.35 0.1c0.26,0.07 0.52,0.14 0.77,0.2l0.24 0.06c0.34,0.09 0.68,0.17 1.03,0.25l0.22 0.05c0.27,0.06 0.53,0.12 0.8,0.17 0.12,0.02 0.24,0.05 0.36,0.07 0.24,0.05 0.47,0.09 0.7,0.13l0.36 0.07c0.24,0.04 0.47,0.07 0.71,0.11 0.13,0.02 0.25,0.04 0.37,0.06 0.3,0.04 0.59,0.08 0.88,0.12l0.17 0.02c0.35,0.04 0.7,0.08 1.06,0.12l0.29 0.03c0.27,0.02 0.53,0.05 0.79,0.07 0.12,0.01 0.25,0.01 0.37,0.02 0.24,0.02 0.48,0.03 0.72,0.05l0.39 0.02c0.26,0.01 0.51,0.02 0.77,0.03l0.32 0.01c0.36,0 0.73,0.01 1.1,0.01 0.36,0 0.73,-0.01 1.1,-0.01l0.31 -0.01c0.26,-0.01 0.52,-0.02 0.77,-0.03l0.39 -0.02c0.24,-0.02 0.48,-0.03 0.72,-0.05l0.37 -0.02c0.26,-0.02 0.53,-0.05 0.79,-0.07l0.29 -0.03c0.36,-0.04 0.71,-0.08 1.07,-0.12l0.16 -0.02c0.29,-0.04 0.59,-0.08 0.88,-0.12 0.12,-0.02 0.25,-0.04 0.37,-0.06 0.24,-0.04 0.47,-0.07 0.71,-0.11l0.36 -0.07c0.23,-0.04 0.47,-0.08 0.7,-0.13l0.36 -0.07c0.27,-0.05 0.53,-0.11 0.8,-0.17l0.22 -0.05c0.35,-0.08 0.69,-0.16 1.03,-0.25l0.24 -0.06c0.26,-0.06 0.51,-0.13 0.77,-0.2l0.36 -0.1c0.22,-0.07 0.44,-0.13 0.66,-0.2l0.36 -0.11c0.22,-0.06 0.43,-0.13 0.65,-0.2l0.36 -0.12c0.25,-0.09 0.5,-0.17 0.75,-0.26l0.22 -0.08c0.33,-0.12 0.66,-0.24 0.98,-0.36l0.22 -0.09c0.25,-0.1 0.49,-0.19 0.73,-0.29l0.34 -0.14c0.21,-0.09 0.41,-0.18 0.62,-0.27l0.35 -0.15c0.22,-0.1 0.44,-0.2 0.67,-0.31l0.25 -0.12c0.31,-0.14 0.62,-0.29 0.93,-0.45l0 0c0.31,-0.15 0.62,-0.31 0.92,-0.47l0.27 -0.15c0.21,-0.11 0.42,-0.22 0.63,-0.34l0.32 -0.18c0.2,-0.12 0.4,-0.23 0.6,-0.35l0.29 -0.17c0.22,-0.13 0.44,-0.27 0.66,-0.4l0.22 -0.14c0.29,-0.18 0.58,-0.37 0.87,-0.56l0.06 -0.04c0.26,-0.17 0.52,-0.35 0.78,-0.53l0.25 -0.17c0.2,-0.14 0.4,-0.29 0.6,-0.43l0.27 -0.2c0.19,-0.14 0.38,-0.28 0.56,-0.42l0.27 -0.2c0.21,-0.17 0.42,-0.33 0.63,-0.5l0.17 -0.13c0.27,-0.22 0.53,-0.44 0.8,-0.66l0.1 -0.08c0.23,-0.2 0.45,-0.39 0.68,-0.59l0.21 -0.19c0.18,-0.16 0.36,-0.33 0.54,-0.49l0.26 -0.24c0.17,-0.16 0.35,-0.33 0.52,-0.49l0.21 -0.21c0.22,-0.21 0.44,-0.43 0.65,-0.64l0.08 -0.08c0.24,-0.25 0.49,-0.5 0.73,-0.76l0.09 -0.1c0.2,-0.22 0.4,-0.44 0.61,-0.66l0.16 -0.18c0.17,-0.2 0.35,-0.4 0.52,-0.61l0.18 -0.2c0.17,-0.21 0.35,-0.42 0.52,-0.63l0.14 -0.17c0.44,-0.54 0.87,-1.1 1.29,-1.66l0.09 -0.12c0.17,-0.24 0.35,-0.48 0.52,-0.73l0.13 -0.18c0.15,-0.23 0.31,-0.45 0.46,-0.68l0.14 -0.2c0.16,-0.25 0.32,-0.5 0.48,-0.75l0.08 -0.13c0.38,-0.59 0.75,-1.2 1.1,-1.82l0.07 -0.13c0.15,-0.26 0.3,-0.52 0.44,-0.78l0.11 -0.2c0.13,-0.25 0.26,-0.5 0.39,-0.76l0.1 -0.19c0.15,-0.29 0.29,-0.58 0.43,-0.87l0.03 -0.06c0.31,-0.65 0.61,-1.31 0.89,-1.98l0.05 -0.13c0.12,-0.28 0.23,-0.56 0.35,-0.85l0.07 -0.19c0.11,-0.28 0.22,-0.56 0.32,-0.85l0.06 -0.14c0.24,-0.66 0.46,-1.32 0.67,-1.98 6.96,11.65 20.35,20.08 36.22,21.97 0.05,-0.01 0.11,-0.01 0.18,-0.01 3.26,0 5.91,-2.53 5.91,-5.65 0,-2.57 -1.81,-4.75 -4.29,-5.42 -1.43,-0.15 -2.83,-0.35 -4.21,-0.62l0 -22.78 -4.99 0 0 21.52c-2.77,-0.87 -5.38,-1.99 -7.79,-3.32l0 -18.2 -4.99 0 0 14.91c-5.14,-4 -8.89,-9.14 -10.62,-14.91l-3.31 0 -93.22 0 -3.32 0zm128.41 61.67l-3.33 -5.5c-0.06,0.01 -0.15,0.02 -0.3,0.02l-2.69 0 0 5.48 -1.79 0 0 -13.15 4.46 0c1.54,0 2.75,0.31 3.66,0.91 0.91,0.61 1.36,1.44 1.36,2.49l0 0.9c0,0.76 -0.26,1.4 -0.77,1.93 -0.51,0.53 -1.22,0.92 -2.12,1.15l3.5 5.77 -1.98 0zm-3.65 -6.78c1,0 1.78,-0.18 2.35,-0.55 0.57,-0.37 0.86,-0.9 0.86,-1.57l0 -0.79c0,-0.68 -0.29,-1.21 -0.88,-1.59 -0.58,-0.38 -1.37,-0.57 -2.37,-0.57l-2.63 0 0 5.07 2.67 0zm-14.96 -5.07l0 4.47 5.86 0 0 1.3 -5.86 0 0 4.78 6.32 0 0 1.3 -8.11 0 0 -13.15 8.11 0 0 1.3 -6.32 0zm-11.91 -1.3c1.94,0 3.42,0.48 4.44,1.42 1.01,0.95 1.52,2.23 1.52,3.84l0 2.29c0,1.74 -0.56,3.11 -1.68,4.11 -1.13,0.99 -2.73,1.49 -4.81,1.49l-3.79 0 0 -13.15 4.32 0zm4.15 5.22c0,-1.24 -0.36,-2.2 -1.07,-2.89 -0.72,-0.69 -1.77,-1.03 -3.17,-1.03l-2.44 0 0 10.55 2 0c1.55,0 2.71,-0.35 3.5,-1.07 0.79,-0.71 1.18,-1.77 1.18,-3.19l0 -2.37zm-14.21 7.93l-3.33 -5.5c-0.05,0.01 -0.15,0.02 -0.29,0.02l-2.7 0 0 5.48 -1.79 0 0 -13.15 4.47 0c1.53,0 2.75,0.31 3.66,0.91 0.9,0.61 1.35,1.44 1.35,2.49l0 0.9c0,0.76 -0.25,1.4 -0.76,1.93 -0.52,0.53 -1.22,0.92 -2.12,1.15l3.5 5.77 -1.99 0zm-3.64 -6.78c1,0 1.78,-0.18 2.35,-0.55 0.57,-0.37 0.85,-0.9 0.85,-1.57l0 -0.79c0,-0.68 -0.29,-1.21 -0.87,-1.59 -0.59,-0.38 -1.38,-0.57 -2.37,-0.57l-2.64 0 0 5.07 2.68 0zm-14.42 -6.59c1.91,0 3.36,0.49 4.33,1.48 0.98,0.99 1.47,2.29 1.47,3.89l0 2.91c0,1.01 -0.22,1.92 -0.65,2.72 -0.42,0.81 -1.07,1.44 -1.93,1.9 -0.87,0.46 -1.94,0.7 -3.22,0.7 -1.28,0 -2.35,-0.24 -3.22,-0.7 -0.88,-0.46 -1.53,-1.09 -1.95,-1.9 -0.43,-0.8 -0.65,-1.71 -0.65,-2.72l0 -2.91c0,-1.62 0.5,-2.91 1.48,-3.9 0.98,-0.98 2.43,-1.47 4.34,-1.47zm0 1.29c-1.33,0 -2.34,0.37 -3,1.1 -0.67,0.73 -1,1.72 -1,2.96l0 2.97c0,1.2 0.33,2.16 0.99,2.89 0.66,0.73 1.66,1.09 3.01,1.09 1.34,0 2.34,-0.37 3,-1.1 0.67,-0.73 1.01,-1.69 1.01,-2.88l0 -2.97c0,-1.24 -0.33,-2.23 -1,-2.96 -0.66,-0.73 -1.66,-1.1 -3.01,-1.1zm-20.99 0.23l0 4.47 5.86 0 0 1.3 -5.86 0 0 4.78 6.32 0 0 1.3 -8.12 0 0 -13.15 8.12 0 0 1.3 -6.32 0zm-6.83 -1.3l0 13.15 -2.15 0 -6.83 -11.16 0 11.16 -1.6 0 0 -13.15 2.17 0 6.78 11.08 0 -11.08 1.63 0zm-20.53 -0.22c1.91,0 3.35,0.49 4.33,1.48 0.98,0.99 1.46,2.29 1.46,3.89l0 2.91c0,1.01 -0.21,1.92 -0.64,2.72 -0.43,0.81 -1.07,1.44 -1.94,1.9 -0.86,0.46 -1.93,0.7 -3.21,0.7 -1.28,0 -2.36,-0.24 -3.23,-0.7 -0.87,-0.46 -1.52,-1.09 -1.95,-1.9 -0.43,-0.8 -0.64,-1.71 -0.64,-2.72l0 -2.91c0,-1.62 0.49,-2.91 1.47,-3.9 0.99,-0.98 2.44,-1.47 4.35,-1.47zm0 1.29c-1.34,0 -2.34,0.37 -3.01,1.1 -0.66,0.73 -1,1.72 -1,2.96l0 2.97c0,1.2 0.33,2.16 0.99,2.89 0.66,0.73 1.67,1.09 3.02,1.09 1.33,0 2.33,-0.37 3,-1.1 0.67,-0.73 1,-1.69 1,-2.88l0 -2.97c0,-1.24 -0.33,-2.23 -0.99,-2.96 -0.66,-0.73 -1.66,-1.1 -3.01,-1.1zm-21 0.23l0 4.47 5.86 0 0 1.3 -5.86 0 0 4.78 6.33 0 0 1.3 -8.12 0 0 -13.15 8.12 0 0 1.3 -6.33 0zm-6.85 11.85l-1.79 0 0 -6.14 -7.06 0 0 6.14 -1.79 0 0 -13.15 1.79 0 0 5.68 7.06 0 0 -5.68 1.79 0 0 13.15zm-13.64 -11.85l-4.32 0 0 11.85 -1.81 0 0 -11.85 -4.34 0 0 -1.3 10.47 0 0 1.3z"/>
  </g>
 </g>
</svg>
