<?xml version="1.0" encoding="UTF-8"?>
<!DOCTYPE svg PUBLIC "-//W3C//DTD SVG 1.1//EN" "http://www.w3.org/Graphics/SVG/1.1/DTD/svg11.dtd">
<!-- Creator: CorelDRAW -->
<svg xmlns="http://www.w3.org/2000/svg" xml:space="preserve" width="180px" height="134px" version="1.1" style="shape-rendering:geometricPrecision; text-rendering:geometricPrecision; image-rendering:optimizeQuality; fill-rule:evenodd; clip-rule:evenodd"
viewBox="0 0 222.03 165.02"
 xmlns:xlink="http://www.w3.org/1999/xlink"
 xmlns:xodm="http://www.corel.com/coreldraw/odm/2003">
 <defs>
  <style type="text/css">
   <![CDATA[
    .fil1 {fill:#FEFEFE}
    .fil2 {fill:#666666}
    .fil0 {fill:#BABABA}
   ]]>
  </style>
 </defs>
 <g id="Camada_x0020_1">
  <metadata id="CorelCorpID_0Corel-Layer"/>
  <g id="_2086644108864">
   <path class="fil0" d="M47.17 69.62c-2.21,-7.38 -7.01,-13.96 -13.58,-19.07l0 19.07 -6.37 0 0 -23.28c-3.09,-1.7 -6.43,-3.13 -9.97,-4.25l0 27.53 -6.38 0 0 -29.14c-1.76,-0.34 -3.56,-0.6 -5.39,-0.79 -3.16,-0.86 -5.48,-3.64 -5.48,-6.94 0,-3.98 3.39,-7.21 7.56,-7.21 0.09,0 0.16,-0.01 0.23,-0.02 20.3,2.41 37.41,13.2 46.31,28.1 0.27,-0.85 0.56,-1.7 0.86,-2.53l0.07 -0.19c0.14,-0.36 0.27,-0.72 0.41,-1.08l0.1 -0.25c0.15,-0.36 0.29,-0.72 0.44,-1.09l0.07 -0.16c0.36,-0.86 0.74,-1.7 1.14,-2.53l0.03 -0.07c0.18,-0.38 0.37,-0.75 0.56,-1.12l0.12 -0.25c0.17,-0.32 0.33,-0.64 0.51,-0.96l0.13 -0.26c0.19,-0.33 0.37,-0.67 0.56,-1l0.09 -0.16c0.45,-0.79 0.92,-1.57 1.4,-2.34l0.11 -0.16c0.2,-0.32 0.41,-0.64 0.62,-0.95l0.17 -0.26c0.2,-0.29 0.4,-0.58 0.6,-0.87l0.16 -0.24c0.22,-0.31 0.45,-0.62 0.67,-0.92l0.12 -0.16c0.53,-0.72 1.08,-1.43 1.64,-2.12l0.18 -0.22c0.22,-0.27 0.44,-0.54 0.67,-0.8l0.22 -0.27c0.22,-0.25 0.45,-0.51 0.67,-0.76l0.21 -0.24c0.26,-0.28 0.52,-0.57 0.78,-0.85l0.11 -0.12c0.31,-0.33 0.62,-0.65 0.94,-0.98l0.1 -0.09c0.27,-0.28 0.54,-0.55 0.82,-0.82l0.28 -0.27c0.22,-0.21 0.44,-0.42 0.67,-0.63l0.32 -0.3c0.23,-0.22 0.46,-0.43 0.7,-0.64l0.26 -0.23c0.29,-0.26 0.58,-0.51 0.87,-0.76l0.13 -0.1c0.34,-0.29 0.68,-0.57 1.02,-0.85l0.21 -0.16c0.27,-0.22 0.54,-0.43 0.82,-0.64l0.33 -0.26c0.24,-0.18 0.49,-0.36 0.73,-0.54l0.34 -0.25c0.25,-0.19 0.51,-0.37 0.76,-0.54l0.33 -0.23c0.32,-0.23 0.66,-0.45 0.99,-0.67l0.09 -0.06c0.37,-0.24 0.74,-0.48 1.11,-0.72l0.28 -0.17c0.27,-0.17 0.55,-0.34 0.84,-0.51l0.37 -0.22c0.26,-0.15 0.51,-0.3 0.77,-0.44l0.41 -0.24c0.27,-0.15 0.53,-0.29 0.8,-0.43l0.34 -0.19c0.39,-0.21 0.79,-0.41 1.18,-0.61l0.01 0c0.39,-0.2 0.79,-0.39 1.18,-0.58l0.33 -0.15c0.28,-0.13 0.57,-0.26 0.85,-0.39l0.45 -0.2c0.26,-0.11 0.52,-0.22 0.79,-0.33l0.44 -0.19c0.3,-0.12 0.61,-0.25 0.92,-0.37l0.29 -0.11c0.41,-0.16 0.83,-0.32 1.25,-0.47l0.28 -0.1c0.32,-0.11 0.64,-0.22 0.96,-0.33 0.15,-0.05 0.31,-0.1 0.46,-0.15 0.28,-0.09 0.56,-0.18 0.84,-0.26l0.46 -0.14c0.28,-0.09 0.56,-0.17 0.84,-0.25l0.46 -0.13c0.33,-0.09 0.66,-0.18 0.99,-0.26l0.3 -0.08c0.44,-0.11 0.87,-0.21 1.31,-0.31l0.29 -0.07c0.34,-0.07 0.68,-0.15 1.02,-0.22 0.14,-0.02 0.28,-0.05 0.42,-0.08 -0.01,-0.22 -0.02,-0.45 -0.02,-0.68 0,-6.79 5.18,-12.29 11.56,-12.29 6.39,0 11.57,5.5 11.57,12.29 0,0.23 -0.01,0.46 -0.02,0.68l0.41 0.08c0.35,0.07 0.69,0.15 1.03,0.22l0.29 0.07c0.43,0.1 0.87,0.2 1.3,0.31l0.31 0.08c0.33,0.08 0.66,0.17 0.99,0.26l0.45 0.13c0.29,0.08 0.57,0.16 0.85,0.25l0.46 0.14c0.28,0.08 0.56,0.17 0.84,0.26l0.46 0.15c0.32,0.11 0.64,0.22 0.96,0.33l0.28 0.1c0.42,0.15 0.83,0.31 1.25,0.47l0.29 0.11c0.31,0.12 0.62,0.25 0.92,0.37l0.44 0.19c0.26,0.11 0.53,0.22 0.79,0.33l0.45 0.2c0.28,0.13 0.57,0.26 0.85,0.39l0.33 0.15c0.39,0.19 0.79,0.38 1.18,0.58l0.01 0c0.39,0.2 0.79,0.4 1.18,0.61l0.34 0.19c0.26,0.14 0.53,0.28 0.8,0.43l0.41 0.24c0.26,0.14 0.51,0.29 0.77,0.44l0.37 0.22c0.28,0.17 0.56,0.34 0.84,0.51l0.28 0.17c0.37,0.24 0.74,0.48 1.11,0.72l0.09 0.06c0.33,0.22 0.66,0.44 0.99,0.67l0.32 0.23c0.26,0.17 0.51,0.35 0.77,0.54l0.34 0.25c0.24,0.18 0.48,0.36 0.72,0.54l0.34 0.26c0.28,0.21 0.55,0.42 0.82,0.64l0.21 0.16c0.34,0.28 0.68,0.56 1.02,0.85l0.12 0.1c0.3,0.25 0.59,0.5 0.88,0.76l0.26 0.23c0.24,0.21 0.47,0.42 0.7,0.64l0.32 0.3c0.23,0.21 0.45,0.42 0.67,0.63l0.28 0.27c0.28,0.27 0.55,0.54 0.82,0.82l0.1 0.09c0.32,0.33 0.63,0.65 0.93,0.98l0.12 0.12c0.26,0.28 0.52,0.57 0.78,0.85l0.21 0.24c0.22,0.25 0.44,0.51 0.67,0.76l0.22 0.27c0.23,0.26 0.45,0.53 0.67,0.8l0.18 0.22c0.56,0.69 1.11,1.4 1.64,2.12l0.12 0.16c0.22,0.3 0.45,0.61 0.67,0.92l0.16 0.24c0.2,0.29 0.4,0.58 0.6,0.87l0.17 0.26c0.21,0.31 0.41,0.63 0.62,0.95l0.1 0.16c0.49,0.77 0.96,1.55 1.41,2.34l0.09 0.16c0.19,0.33 0.37,0.67 0.56,1l0.13 0.26c0.17,0.32 0.34,0.64 0.51,0.96l0.12 0.25c0.19,0.37 0.37,0.74 0.55,1.12l0.04 0.07c0.4,0.83 0.78,1.67 1.14,2.53l0.07 0.16c0.15,0.37 0.29,0.73 0.44,1.09l0.09 0.25c0.14,0.36 0.28,0.72 0.42,1.08l0.06 0.19c0.31,0.83 0.6,1.68 0.86,2.53 8.91,-14.9 26.02,-25.69 46.31,-28.1 0.08,0.01 0.15,0.02 0.23,0.02 4.18,0 7.57,3.23 7.57,7.21 0,3.3 -2.32,6.08 -5.48,6.94 -1.83,0.19 -3.63,0.45 -5.4,0.79l0 29.14 -6.37 0 0 -27.53c-3.54,1.12 -6.88,2.55 -9.97,4.25l0 23.28 -6.38 0 0 -19.07c-6.56,5.11 -11.36,11.69 -13.57,19.07l-4.24 0 -119.21 0 -4.24 0zm110.03 94.66c0,0.11 0.02,0.19 0.06,0.23 0.04,0.05 0.1,0.08 0.19,0.08 0.04,0 0.1,-0.01 0.18,-0.03l0.07 0.38c-0.13,0.06 -0.26,0.08 -0.39,0.08 -0.2,0 -0.36,-0.05 -0.47,-0.17 -0.12,-0.11 -0.18,-0.27 -0.18,-0.48l0 -4.17 0.54 0 0 4.08zm-7.41 -2.8c0.4,0 0.7,0.11 0.91,0.31 0.2,0.2 0.31,0.48 0.31,0.84l0 2.31 -0.44 0 -0.04 -0.37c-0.29,0.3 -0.65,0.45 -1.08,0.45 -0.2,0 -0.38,-0.04 -0.55,-0.11 -0.16,-0.08 -0.3,-0.19 -0.4,-0.33 -0.1,-0.15 -0.15,-0.31 -0.15,-0.5l0 -0.22c0,-0.29 0.13,-0.53 0.37,-0.71 0.25,-0.17 0.58,-0.26 1,-0.26l0.75 0 0 -0.28c0,-0.23 -0.06,-0.41 -0.18,-0.52 -0.12,-0.12 -0.3,-0.18 -0.54,-0.18 -0.19,0 -0.36,0.03 -0.51,0.07 -0.16,0.05 -0.32,0.11 -0.5,0.2l-0.18 -0.36c0.38,-0.22 0.79,-0.34 1.23,-0.34zm-0.25 3.12c0.38,0 0.69,-0.15 0.93,-0.44l0 -0.89 -0.7 0c-0.28,0 -0.5,0.05 -0.65,0.16 -0.15,0.11 -0.23,0.26 -0.23,0.47l0 0.14c0,0.17 0.06,0.31 0.17,0.41 0.12,0.1 0.28,0.15 0.48,0.15zm-7.69 -3.12c0.33,0 0.59,0.1 0.79,0.3 0.21,0.2 0.31,0.47 0.31,0.83l0 2.33 -0.54 0 0 -2.28c0,-0.26 -0.06,-0.44 -0.18,-0.56 -0.11,-0.13 -0.28,-0.19 -0.49,-0.19 -0.37,0 -0.68,0.19 -0.92,0.56l0 2.47 -0.54 0 0 -3.38 0.46 0 0.04 0.42c0.26,-0.33 0.62,-0.5 1.07,-0.5zm-8.6 0c0.32,0 0.6,0.07 0.83,0.21 0.22,0.14 0.4,0.32 0.52,0.56 0.12,0.24 0.18,0.52 0.18,0.82l0 0.34c0,0.31 -0.06,0.59 -0.18,0.84 -0.12,0.24 -0.3,0.43 -0.52,0.57 -0.23,0.13 -0.51,0.2 -0.83,0.2 -0.49,0 -0.87,-0.15 -1.13,-0.44 -0.27,-0.3 -0.4,-0.69 -0.4,-1.17l0 -0.34c0,-0.3 0.06,-0.58 0.18,-0.82 0.12,-0.24 0.29,-0.42 0.52,-0.56 0.23,-0.14 0.5,-0.21 0.83,-0.21zm0 0.43c-0.32,0 -0.56,0.11 -0.73,0.31 -0.17,0.2 -0.26,0.48 -0.26,0.85l0 0.34c0,0.37 0.09,0.66 0.26,0.87 0.17,0.21 0.41,0.31 0.73,0.31 0.31,0 0.56,-0.1 0.73,-0.31 0.17,-0.21 0.26,-0.5 0.26,-0.87l0 -0.34c0,-0.37 -0.09,-0.65 -0.26,-0.85 -0.17,-0.2 -0.42,-0.31 -0.73,-0.31zm-7.04 3.03l-0.53 0 0 -2.96 -0.54 0 0 -0.42 1.07 0 0 3.38zm-0.3 -4.01c-0.09,0 -0.17,-0.03 -0.24,-0.1 -0.06,-0.06 -0.1,-0.14 -0.1,-0.24 0,-0.1 0.04,-0.18 0.1,-0.24 0.07,-0.07 0.15,-0.1 0.24,-0.1 0.1,0 0.18,0.03 0.24,0.1 0.07,0.06 0.1,0.14 0.1,0.24 0,0.1 -0.03,0.18 -0.1,0.24 -0.06,0.07 -0.14,0.1 -0.24,0.1zm-5.75 4.01c-0.18,0.06 -0.36,0.08 -0.53,0.08 -0.29,0 -0.52,-0.07 -0.67,-0.2 -0.16,-0.14 -0.23,-0.34 -0.23,-0.61l0 -2.23 -0.54 0 0 -0.42 0.54 0 0.05 -0.81 0.49 0 0 0.81 0.79 0 0 0.42 -0.79 0 0 2.2c0,0.28 0.15,0.41 0.46,0.41 0.12,0 0.24,-0.01 0.36,-0.04l0.07 0.39zm-8.55 -3.46c0.4,0 0.71,0.11 0.91,0.31 0.21,0.2 0.31,0.48 0.31,0.84l0 2.31 -0.43 0 -0.05 -0.37c-0.29,0.3 -0.64,0.45 -1.08,0.45 -0.19,0 -0.37,-0.04 -0.54,-0.11 -0.17,-0.08 -0.3,-0.19 -0.4,-0.33 -0.1,-0.15 -0.15,-0.31 -0.15,-0.5l0 -0.22c0,-0.29 0.12,-0.53 0.37,-0.71 0.24,-0.17 0.58,-0.26 1,-0.26l0.74 0 0 -0.28c0,-0.23 -0.06,-0.41 -0.17,-0.52 -0.12,-0.12 -0.3,-0.18 -0.54,-0.18 -0.19,0 -0.36,0.03 -0.52,0.07 -0.15,0.05 -0.32,0.11 -0.49,0.2l-0.18 -0.36c0.38,-0.22 0.78,-0.34 1.22,-0.34zm-0.25 3.12c0.39,0 0.7,-0.15 0.93,-0.44l0 -0.89 -0.7 0c-0.28,0 -0.49,0.05 -0.65,0.16 -0.15,0.11 -0.22,0.26 -0.22,0.47l0 0.14c0,0.17 0.05,0.31 0.17,0.41 0.11,0.1 0.27,0.15 0.47,0.15zm-7.68 -3.12c0.32,0 0.59,0.1 0.79,0.3 0.2,0.2 0.3,0.47 0.3,0.83l0 2.33 -0.53 0 0 -2.28c0,-0.26 -0.06,-0.44 -0.18,-0.56 -0.12,-0.13 -0.28,-0.19 -0.5,-0.19 -0.37,0 -0.67,0.19 -0.91,0.56l0 2.47 -0.54 0 0 -3.38 0.45 0 0.05 0.42c0.26,-0.33 0.61,-0.5 1.07,-0.5zm-7.23 0.02c0.16,0 0.29,0.02 0.39,0.06l-0.1 0.51c-0.08,-0.02 -0.15,-0.03 -0.21,-0.03 -0.23,0 -0.42,0.06 -0.58,0.19 -0.16,0.12 -0.28,0.32 -0.37,0.6l0 2.11 -0.54 0 0 -3.38 0.4 0 0.09 0.58c0.1,-0.22 0.23,-0.38 0.39,-0.48 0.16,-0.1 0.34,-0.16 0.53,-0.16zm-6.9 1.6c0,0.13 0,0.24 -0.02,0.33l-2.3 0c0,0.38 0.09,0.66 0.27,0.86 0.18,0.2 0.44,0.3 0.78,0.3 0.18,0 0.34,-0.02 0.48,-0.08 0.14,-0.05 0.29,-0.12 0.44,-0.22l0.2 0.34c-0.14,0.12 -0.31,0.21 -0.52,0.28 -0.2,0.07 -0.41,0.11 -0.63,0.11 -0.32,0 -0.6,-0.07 -0.83,-0.21 -0.24,-0.14 -0.42,-0.33 -0.54,-0.57 -0.12,-0.24 -0.19,-0.52 -0.19,-0.83l0 -0.33c0,-0.3 0.06,-0.57 0.18,-0.81 0.12,-0.25 0.29,-0.44 0.51,-0.58 0.22,-0.14 0.48,-0.21 0.77,-0.21 0.44,0 0.78,0.15 1.03,0.43 0.25,0.28 0.37,0.68 0.37,1.19zm-0.49 -0.1c0,-0.34 -0.07,-0.61 -0.23,-0.8 -0.16,-0.19 -0.38,-0.29 -0.68,-0.29 -0.29,0 -0.51,0.1 -0.67,0.3 -0.16,0.19 -0.25,0.47 -0.25,0.82l1.83 0 0 -0.03zm-7.44 1.94c-0.18,0.06 -0.35,0.08 -0.52,0.08 -0.3,0 -0.52,-0.07 -0.68,-0.2 -0.15,-0.14 -0.23,-0.34 -0.23,-0.61l0 -2.23 -0.53 0 0 -0.42 0.54 0 0.05 -0.81 0.48 0 0 0.81 0.8 0 0 0.42 -0.8 0 0 2.2c0,0.28 0.16,0.41 0.46,0.41 0.13,0 0.25,-0.01 0.37,-0.04l0.06 0.39zm-8.42 -3.46c0.33,0 0.59,0.1 0.79,0.3 0.21,0.2 0.31,0.47 0.31,0.83l0 2.33 -0.54 0 0 -2.28c0,-0.26 -0.06,-0.44 -0.18,-0.56 -0.11,-0.13 -0.28,-0.19 -0.49,-0.19 -0.38,0 -0.68,0.19 -0.92,0.56l0 2.47 -0.54 0 0 -3.38 0.46 0 0.04 0.42c0.26,-0.33 0.61,-0.5 1.07,-0.5zm-7.78 -0.58l0 3.6 0.55 0 0 0.44 -1.65 0 0 -0.44 0.56 0 0 -3.6 -0.56 0 0 -0.44 1.65 0 0 0.44 -0.55 0z"/>
   <path class="fil1" d="M21.51 137.26l-5.52 0 0 15.15 -2.32 0 0 -15.15 -5.55 0 0 -1.66 13.39 0 0 1.66zm17.44 15.15l-2.29 0 0 -7.85 -9.03 0 0 7.85 -2.29 0 0 -16.81 2.29 0 0 7.25 9.03 0 0 -7.25 2.29 0 0 16.81zm8.76 -15.15l0 5.71 7.5 0 0 1.66 -7.5 0 0 6.13 8.09 0 0 1.65 -10.38 0 0 -16.81 10.38 0 0 1.66 -8.09 0zm26.85 -0.29c-1.71,0 -2.99,0.47 -3.84,1.41 -0.86,0.93 -1.28,2.19 -1.28,3.78l0 3.79c0,1.54 0.42,2.77 1.27,3.7 0.84,0.93 2.12,1.39 3.85,1.39 1.71,0 2.99,-0.46 3.84,-1.4 0.85,-0.94 1.28,-2.17 1.28,-3.69l0 -3.79c0,-1.59 -0.42,-2.85 -1.27,-3.78 -0.84,-0.94 -2.13,-1.41 -3.85,-1.41zm0 -1.66c2.44,0 4.29,0.64 5.54,1.9 1.25,1.26 1.87,2.92 1.87,4.97l0 3.73c0,1.29 -0.27,2.45 -0.82,3.48 -0.55,1.02 -1.38,1.83 -2.48,2.42 -1.11,0.6 -2.48,0.89 -4.11,0.89 -1.64,0 -3.01,-0.29 -4.12,-0.89 -1.12,-0.59 -1.95,-1.4 -2.5,-2.42 -0.55,-1.03 -0.82,-2.19 -0.82,-3.48l0 -3.73c0,-2.06 0.63,-3.72 1.89,-4.98 1.25,-1.26 3.11,-1.89 5.55,-1.89zm26.25 0.29l0 16.81 -2.75 0 -8.73 -14.26 0 14.26 -2.05 0 0 -16.81 2.78 0 8.68 14.17 0 -14.17 2.07 0zm8.74 1.66l0 5.71 7.49 0 0 1.66 -7.49 0 0 6.13 8.08 0 0 1.65 -10.38 0 0 -16.81 10.38 0 0 1.66 -8.08 0zm26.84 -0.29c-1.71,0 -2.99,0.47 -3.84,1.41 -0.85,0.93 -1.28,2.19 -1.28,3.78l0 3.79c0,1.54 0.42,2.77 1.27,3.7 0.84,0.93 2.13,1.39 3.85,1.39 1.71,0 2.99,-0.46 3.84,-1.4 0.86,-0.94 1.28,-2.17 1.28,-3.69l0 -3.79c0,-1.59 -0.42,-2.85 -1.26,-3.78 -0.85,-0.94 -2.13,-1.41 -3.86,-1.41zm0 -1.66c2.44,0 4.29,0.64 5.54,1.9 1.25,1.26 1.87,2.92 1.87,4.97l0 3.73c0,1.29 -0.27,2.45 -0.82,3.48 -0.55,1.02 -1.37,1.83 -2.48,2.42 -1.1,0.6 -2.47,0.89 -4.11,0.89 -1.63,0 -3.01,-0.29 -4.12,-0.89 -1.12,-0.59 -1.95,-1.4 -2.5,-2.42 -0.54,-1.03 -0.82,-2.19 -0.82,-3.48l0 -3.73c0,-2.06 0.63,-3.72 1.89,-4.98 1.26,-1.26 3.11,-1.89 5.55,-1.89zm18.44 8.43c1.27,0 2.27,-0.23 3,-0.71 0.73,-0.47 1.09,-1.14 1.09,-2l0 -1.01c0,-0.86 -0.37,-1.54 -1.11,-2.03 -0.75,-0.49 -1.76,-0.73 -3.04,-0.73l-3.37 0 0 6.48 3.43 0zm4.66 8.67l-4.26 -7.03c-0.07,0.01 -0.2,0.02 -0.38,0.02l-3.45 0 0 7.01 -2.29 0 0 -16.81 5.72 0c1.96,0 3.51,0.39 4.67,1.17 1.16,0.77 1.74,1.83 1.74,3.18l0 1.15c0,0.96 -0.33,1.78 -0.98,2.46 -0.66,0.68 -1.56,1.18 -2.71,1.48l4.47 7.37 -2.53 0zm18.17 -10.13c0,-1.59 -0.46,-2.82 -1.38,-3.7 -0.91,-0.88 -2.26,-1.32 -4.04,-1.32l-3.13 0 0 13.5 2.56 0c1.98,0 3.47,-0.46 4.48,-1.37 1,-0.92 1.51,-2.28 1.51,-4.09l0 -3.02zm-5.31 -6.68c2.48,0 4.37,0.61 5.67,1.81 1.3,1.21 1.95,2.85 1.95,4.92l0 2.93c0,2.22 -0.71,3.97 -2.15,5.24 -1.44,1.28 -3.49,1.91 -6.15,1.91l-4.85 0 0 -16.81 5.53 0zm15.23 1.66l0 5.71 7.49 0 0 1.66 -7.49 0 0 6.13 8.08 0 0 1.65 -10.38 0 0 -16.81 10.38 0 0 1.66 -8.08 0zm19.13 6.48c1.28,0 2.28,-0.23 3.01,-0.71 0.73,-0.47 1.09,-1.14 1.09,-2l0 -1.01c0,-0.86 -0.37,-1.54 -1.12,-2.03 -0.74,-0.49 -1.76,-0.73 -3.03,-0.73l-3.37 0 0 6.48 3.42 0zm4.67 8.67l-4.26 -7.03c-0.07,0.01 -0.2,0.02 -0.38,0.02l-3.45 0 0 7.01 -2.29 0 0 -16.81 5.71 0c1.96,0 3.52,0.39 4.68,1.17 1.16,0.77 1.74,1.83 1.74,3.18l0 1.15c0,0.96 -0.33,1.78 -0.99,2.46 -0.65,0.68 -1.55,1.18 -2.71,1.48l4.48 7.37 -2.53 0z"/>
   <path class="fil2" d="M47.17 73.55c-2.21,7.38 -7.01,13.95 -13.58,19.07l0 -19.07 -6.37 0 0 23.27c-3.09,1.71 -6.43,3.14 -9.97,4.25l0 -27.52 -6.38 0 0 29.13c-1.76,0.34 -3.56,0.61 -5.39,0.79 -3.16,0.87 -5.48,3.65 -5.48,6.94 0,3.99 3.39,7.22 7.56,7.22 0.09,0 0.16,0.01 0.23,0.02 20.3,-2.42 37.41,-13.21 46.31,-28.11 0.27,0.86 0.56,1.7 0.86,2.54l0.07 0.18c0.14,0.37 0.27,0.73 0.41,1.09l0.1 0.24c0.15,0.37 0.29,0.73 0.44,1.09l0.07 0.17c0.36,0.85 0.74,1.7 1.14,2.53l0.03 0.07c0.18,0.37 0.37,0.75 0.56,1.12l0.12 0.24c0.17,0.33 0.33,0.65 0.51,0.97l0.13 0.25c0.19,0.34 0.37,0.67 0.56,1.01l0.09 0.16c0.45,0.79 0.92,1.57 1.4,2.33l0.11 0.17c0.2,0.32 0.41,0.63 0.62,0.95l0.17 0.25c0.2,0.3 0.4,0.59 0.6,0.88l0.16 0.23c0.22,0.31 0.45,0.62 0.67,0.93l0.12 0.16c0.53,0.72 1.08,1.42 1.64,2.12l0.18 0.22c0.22,0.27 0.44,0.53 0.67,0.8l0.22 0.26c0.22,0.26 0.45,0.52 0.67,0.77l0.21 0.23c0.26,0.29 0.52,0.57 0.78,0.85l0.11 0.13c0.31,0.33 0.62,0.65 0.94,0.97l0.1 0.1c0.27,0.28 0.54,0.55 0.82,0.82l0.28 0.27c0.22,0.21 0.44,0.42 0.67,0.63l0.32 0.3c0.23,0.21 0.46,0.42 0.7,0.63l0.26 0.24c0.29,0.25 0.58,0.5 0.87,0.75l0.13 0.11c0.34,0.28 0.68,0.57 1.02,0.84l0.21 0.17c0.27,0.21 0.54,0.43 0.82,0.64l0.33 0.25c0.24,0.19 0.49,0.37 0.73,0.55l0.34 0.25c0.25,0.18 0.51,0.36 0.76,0.54l0.33 0.23c0.32,0.22 0.66,0.45 0.99,0.67l0.09 0.06c0.37,0.24 0.74,0.48 1.11,0.71l0.28 0.17c0.27,0.18 0.55,0.35 0.84,0.52l0.37 0.22c0.26,0.15 0.51,0.29 0.77,0.44l0.41 0.23c0.27,0.15 0.53,0.3 0.8,0.44l0.34 0.19c0.39,0.2 0.79,0.41 1.18,0.6l0.01 0.01c0.39,0.19 0.79,0.39 1.18,0.57l0.33 0.15c0.28,0.14 0.57,0.27 0.85,0.4l0.45 0.19c0.26,0.12 0.52,0.23 0.79,0.34l0.44 0.18c0.3,0.13 0.61,0.25 0.92,0.37l0.29 0.12c0.41,0.16 0.83,0.31 1.25,0.46l0.28 0.1c0.32,0.11 0.64,0.23 0.96,0.33 0.15,0.05 0.31,0.1 0.46,0.15 0.28,0.09 0.56,0.18 0.84,0.27l0.46 0.14c0.28,0.08 0.56,0.17 0.85,0.25l0.45 0.12c0.33,0.09 0.66,0.18 0.99,0.27l0.3 0.08c0.44,0.11 0.87,0.21 1.31,0.31l0.29 0.06c0.34,0.08 0.68,0.15 1.02,0.22 0.16,0.03 0.31,0.06 0.47,0.09 0.29,0.06 0.59,0.12 0.89,0.17l0.46 0.08c0.3,0.05 0.6,0.1 0.91,0.15 0.16,0.02 0.31,0.05 0.47,0.07 0.38,0.06 0.75,0.11 1.13,0.16l0.21 0.02c0.45,0.06 0.9,0.11 1.36,0.16l0.37 0.03c0.34,0.03 0.67,0.06 1.01,0.09 0.16,0.01 0.31,0.02 0.47,0.03 0.3,0.02 0.61,0.04 0.92,0.06l0.5 0.03c0.33,0.01 0.65,0.02 0.98,0.03l0.41 0.02c0.47,0.01 0.93,0.01 1.4,0.01 0.47,0 0.94,0 1.41,-0.01l0.41 -0.02c0.32,-0.01 0.65,-0.02 0.98,-0.03l0.5 -0.03c0.31,-0.02 0.61,-0.04 0.92,-0.06l0.47 -0.03c0.33,-0.03 0.67,-0.06 1.01,-0.09l0.37 -0.03c0.46,-0.05 0.91,-0.1 1.36,-0.16l0.21 -0.02c0.38,-0.05 0.75,-0.1 1.13,-0.16 0.16,-0.02 0.31,-0.05 0.47,-0.07 0.3,-0.05 0.61,-0.1 0.91,-0.15l0.46 -0.08c0.3,-0.05 0.6,-0.11 0.89,-0.17l0.46 -0.09c0.35,-0.07 0.69,-0.14 1.03,-0.22l0.29 -0.06c0.43,-0.1 0.87,-0.2 1.3,-0.31l0.31 -0.08c0.33,-0.09 0.66,-0.18 0.99,-0.27l0.45 -0.12c0.29,-0.08 0.57,-0.17 0.85,-0.25l0.46 -0.14c0.28,-0.09 0.56,-0.18 0.84,-0.27l0.46 -0.15c0.32,-0.1 0.64,-0.22 0.96,-0.33l0.28 -0.1c0.42,-0.15 0.83,-0.3 1.25,-0.46l0.29 -0.12c0.31,-0.12 0.62,-0.24 0.92,-0.37l0.44 -0.18c0.26,-0.11 0.53,-0.22 0.79,-0.34l0.45 -0.19c0.28,-0.13 0.57,-0.26 0.85,-0.4l0.33 -0.15c0.39,-0.18 0.79,-0.38 1.18,-0.57l0.01 -0.01c0.39,-0.19 0.79,-0.4 1.18,-0.6l0.34 -0.19c0.26,-0.14 0.53,-0.29 0.8,-0.44l0.41 -0.23c0.26,-0.15 0.51,-0.29 0.77,-0.44l0.37 -0.22c0.28,-0.17 0.56,-0.34 0.84,-0.52l0.28 -0.17c0.37,-0.23 0.74,-0.47 1.11,-0.71l0.09 -0.06c0.33,-0.22 0.66,-0.45 0.99,-0.67l0.32 -0.23c0.26,-0.18 0.51,-0.36 0.77,-0.54l0.34 -0.25c0.24,-0.18 0.48,-0.36 0.72,-0.55l0.34 -0.25c0.28,-0.21 0.55,-0.43 0.82,-0.64l0.21 -0.17c0.34,-0.27 0.68,-0.56 1.02,-0.84l0.12 -0.11c0.3,-0.25 0.59,-0.5 0.88,-0.75l0.26 -0.24c0.24,-0.21 0.47,-0.42 0.7,-0.63l0.32 -0.3c0.23,-0.21 0.45,-0.42 0.67,-0.63l0.28 -0.27c0.28,-0.27 0.55,-0.54 0.82,-0.82l0.1 -0.1c0.32,-0.32 0.63,-0.64 0.93,-0.97l0.12 -0.13c0.26,-0.28 0.52,-0.56 0.78,-0.85l0.21 -0.23c0.22,-0.25 0.44,-0.51 0.67,-0.77l0.22 -0.26c0.23,-0.27 0.45,-0.53 0.67,-0.8l0.18 -0.22c0.56,-0.7 1.11,-1.4 1.64,-2.12l0.12 -0.16c0.22,-0.31 0.45,-0.62 0.67,-0.93l0.16 -0.23c0.2,-0.29 0.4,-0.58 0.6,-0.88l0.17 -0.25c0.21,-0.32 0.41,-0.63 0.62,-0.95l0.1 -0.17c0.49,-0.76 0.96,-1.54 1.41,-2.33l0.09 -0.16c0.19,-0.34 0.37,-0.67 0.56,-1.01l0.13 -0.25c0.17,-0.32 0.34,-0.64 0.51,-0.97l0.12 -0.24c0.19,-0.37 0.37,-0.75 0.55,-1.12l0.04 -0.07c0.4,-0.83 0.78,-1.68 1.14,-2.53l0.07 -0.17c0.15,-0.36 0.29,-0.72 0.44,-1.09l0.09 -0.24c0.14,-0.36 0.28,-0.72 0.42,-1.09l0.06 -0.18c0.31,-0.84 0.6,-1.68 0.86,-2.54 8.91,14.9 26.02,25.69 46.31,28.11 0.08,-0.01 0.15,-0.02 0.23,-0.02 4.18,0 7.57,-3.23 7.57,-7.22 0,-3.29 -2.32,-6.07 -5.48,-6.94 -1.83,-0.18 -3.63,-0.45 -5.4,-0.79l0 -29.13 -6.37 0 0 27.52c-3.54,-1.11 -6.88,-2.54 -9.97,-4.25l0 -23.27 -6.38 0 0 19.07c-6.56,-5.12 -11.36,-11.69 -13.57,-19.07l-4.24 0 -119.21 0 -4.24 0z"/>
  </g>
 </g>
</svg>
